<mxfile host="app.diagrams.net" modified="2022-01-15T14:58:49.556Z" agent="5.0 (Windows NT 10.0; Win64; x64) AppleWebKit/537.36 (KHTML, like Gecko) Chrome/94.0.4606.85 YaBrowser/21.11.4.727 Yowser/2.5 Safari/537.36" etag="i1_0MBlX0tWvIOSi9PIe" version="16.2.7" type="github" pages="3">
  <diagram id="5q3A3s03cKrT4C8gLdCA" name="Диаграмма вариантов использования">
    <mxGraphModel dx="1182" dy="759" grid="1" gridSize="10" guides="1" tooltips="1" connect="1" arrows="1" fold="1" page="1" pageScale="1" pageWidth="827" pageHeight="1169" math="0" shadow="0">
      <root>
        <mxCell id="0" />
        <mxCell id="1" parent="0" />
        <mxCell id="RY9acW77J2VLaXt5oCim-8" style="edgeStyle=orthogonalEdgeStyle;rounded=0;orthogonalLoop=1;jettySize=auto;html=1;exitX=0.5;exitY=0.5;exitDx=0;exitDy=0;exitPerimeter=0;entryX=0;entryY=0.5;entryDx=0;entryDy=0;" parent="1" source="RY9acW77J2VLaXt5oCim-1" target="RY9acW77J2VLaXt5oCim-3" edge="1">
          <mxGeometry relative="1" as="geometry" />
        </mxCell>
        <mxCell id="RY9acW77J2VLaXt5oCim-32" style="edgeStyle=orthogonalEdgeStyle;rounded=0;orthogonalLoop=1;jettySize=auto;html=1;entryX=0;entryY=0.5;entryDx=0;entryDy=0;" parent="1" source="RY9acW77J2VLaXt5oCim-1" target="RY9acW77J2VLaXt5oCim-14" edge="1">
          <mxGeometry relative="1" as="geometry">
            <Array as="points">
              <mxPoint x="260" y="130" />
              <mxPoint x="260" y="455" />
            </Array>
          </mxGeometry>
        </mxCell>
        <mxCell id="RY9acW77J2VLaXt5oCim-33" style="edgeStyle=orthogonalEdgeStyle;rounded=0;orthogonalLoop=1;jettySize=auto;html=1;entryX=0;entryY=0.5;entryDx=0;entryDy=0;" parent="1" source="RY9acW77J2VLaXt5oCim-1" target="RY9acW77J2VLaXt5oCim-15" edge="1">
          <mxGeometry relative="1" as="geometry">
            <Array as="points">
              <mxPoint x="250" y="130" />
              <mxPoint x="250" y="705" />
            </Array>
          </mxGeometry>
        </mxCell>
        <mxCell id="RY9acW77J2VLaXt5oCim-1" value="Разработчик" style="shape=umlActor;verticalLabelPosition=bottom;verticalAlign=top;html=1;" parent="1" vertex="1">
          <mxGeometry x="180" y="100" width="30" height="60" as="geometry" />
        </mxCell>
        <mxCell id="RY9acW77J2VLaXt5oCim-21" style="edgeStyle=orthogonalEdgeStyle;rounded=0;orthogonalLoop=1;jettySize=auto;html=1;entryX=0;entryY=0.5;entryDx=0;entryDy=0;" parent="1" source="RY9acW77J2VLaXt5oCim-2" target="RY9acW77J2VLaXt5oCim-14" edge="1">
          <mxGeometry relative="1" as="geometry">
            <Array as="points">
              <mxPoint x="268" y="510" />
              <mxPoint x="268" y="470" />
              <mxPoint x="325" y="470" />
            </Array>
          </mxGeometry>
        </mxCell>
        <mxCell id="RY9acW77J2VLaXt5oCim-22" style="edgeStyle=orthogonalEdgeStyle;rounded=0;orthogonalLoop=1;jettySize=auto;html=1;entryX=0;entryY=0.5;entryDx=0;entryDy=0;" parent="1" source="RY9acW77J2VLaXt5oCim-2" target="RY9acW77J2VLaXt5oCim-15" edge="1">
          <mxGeometry relative="1" as="geometry">
            <Array as="points">
              <mxPoint x="268" y="510" />
              <mxPoint x="268" y="690" />
              <mxPoint x="325" y="690" />
            </Array>
          </mxGeometry>
        </mxCell>
        <mxCell id="RY9acW77J2VLaXt5oCim-2" value="Пользователь" style="shape=umlActor;verticalLabelPosition=bottom;verticalAlign=top;html=1;" parent="1" vertex="1">
          <mxGeometry x="180" y="480" width="30" height="60" as="geometry" />
        </mxCell>
        <mxCell id="RY9acW77J2VLaXt5oCim-3" value="Управление программой" style="ellipse;whiteSpace=wrap;html=1;" parent="1" vertex="1">
          <mxGeometry x="330" y="150" width="130" height="70" as="geometry" />
        </mxCell>
        <mxCell id="RY9acW77J2VLaXt5oCim-4" value="Правка программы" style="ellipse;whiteSpace=wrap;html=1;" parent="1" vertex="1">
          <mxGeometry x="530" y="40" width="140" height="70" as="geometry" />
        </mxCell>
        <mxCell id="RY9acW77J2VLaXt5oCim-5" value="Добавление функций" style="ellipse;whiteSpace=wrap;html=1;" parent="1" vertex="1">
          <mxGeometry x="530" y="150" width="140" height="70" as="geometry" />
        </mxCell>
        <mxCell id="RY9acW77J2VLaXt5oCim-9" value="Удаление функций" style="ellipse;whiteSpace=wrap;html=1;" parent="1" vertex="1">
          <mxGeometry x="530" y="260" width="140" height="70" as="geometry" />
        </mxCell>
        <mxCell id="RY9acW77J2VLaXt5oCim-14" value="Просмотр ресурсов файловой системы" style="ellipse;whiteSpace=wrap;html=1;" parent="1" vertex="1">
          <mxGeometry x="325" y="420" width="140" height="70" as="geometry" />
        </mxCell>
        <mxCell id="RY9acW77J2VLaXt5oCim-15" value="Открытие файлов" style="ellipse;whiteSpace=wrap;html=1;" parent="1" vertex="1">
          <mxGeometry x="325" y="670" width="140" height="70" as="geometry" />
        </mxCell>
        <mxCell id="RY9acW77J2VLaXt5oCim-16" value="Просмотр списка файлов" style="ellipse;whiteSpace=wrap;html=1;" parent="1" vertex="1">
          <mxGeometry x="530" y="380" width="140" height="70" as="geometry" />
        </mxCell>
        <mxCell id="RY9acW77J2VLaXt5oCim-17" value="Просмотр содержимого файлов (запуск)" style="ellipse;whiteSpace=wrap;html=1;" parent="1" vertex="1">
          <mxGeometry x="530" y="520" width="140" height="70" as="geometry" />
        </mxCell>
        <mxCell id="RY9acW77J2VLaXt5oCim-20" value="Запуск приложения" style="ellipse;whiteSpace=wrap;html=1;" parent="1" vertex="1">
          <mxGeometry x="530" y="670" width="140" height="70" as="geometry" />
        </mxCell>
        <mxCell id="RY9acW77J2VLaXt5oCim-24" value="include" style="html=1;verticalAlign=bottom;endArrow=block;rounded=0;entryX=0;entryY=0.5;entryDx=0;entryDy=0;" parent="1" target="RY9acW77J2VLaXt5oCim-16" edge="1">
          <mxGeometry x="-0.2385" width="80" relative="1" as="geometry">
            <mxPoint x="465" y="454.71" as="sourcePoint" />
            <mxPoint x="545" y="454.71" as="targetPoint" />
            <mxPoint as="offset" />
          </mxGeometry>
        </mxCell>
        <mxCell id="RY9acW77J2VLaXt5oCim-25" value="include" style="html=1;verticalAlign=bottom;endArrow=block;rounded=0;entryX=0.5;entryY=0;entryDx=0;entryDy=0;exitX=0.5;exitY=1;exitDx=0;exitDy=0;" parent="1" source="RY9acW77J2VLaXt5oCim-16" target="RY9acW77J2VLaXt5oCim-17" edge="1">
          <mxGeometry x="0.1429" y="-10" width="80" relative="1" as="geometry">
            <mxPoint x="475" y="465" as="sourcePoint" />
            <mxPoint x="540" y="425" as="targetPoint" />
            <mxPoint as="offset" />
          </mxGeometry>
        </mxCell>
        <mxCell id="RY9acW77J2VLaXt5oCim-28" value="include" style="html=1;verticalAlign=bottom;endArrow=block;rounded=0;entryX=0;entryY=0.5;entryDx=0;entryDy=0;exitX=1;exitY=0.5;exitDx=0;exitDy=0;" parent="1" source="RY9acW77J2VLaXt5oCim-15" target="RY9acW77J2VLaXt5oCim-20" edge="1">
          <mxGeometry x="-0.2385" width="80" relative="1" as="geometry">
            <mxPoint x="475" y="464.71000000000004" as="sourcePoint" />
            <mxPoint x="540" y="425" as="targetPoint" />
            <mxPoint as="offset" />
          </mxGeometry>
        </mxCell>
        <mxCell id="RY9acW77J2VLaXt5oCim-29" value="include" style="html=1;verticalAlign=bottom;endArrow=block;rounded=0;entryX=0;entryY=0.5;entryDx=0;entryDy=0;exitX=1;exitY=0.5;exitDx=0;exitDy=0;" parent="1" source="RY9acW77J2VLaXt5oCim-3" target="RY9acW77J2VLaXt5oCim-4" edge="1">
          <mxGeometry x="-0.2385" width="80" relative="1" as="geometry">
            <mxPoint x="475" y="464.71000000000004" as="sourcePoint" />
            <mxPoint x="540" y="425" as="targetPoint" />
            <mxPoint as="offset" />
          </mxGeometry>
        </mxCell>
        <mxCell id="RY9acW77J2VLaXt5oCim-30" value="include" style="html=1;verticalAlign=bottom;endArrow=block;rounded=0;entryX=0;entryY=0.5;entryDx=0;entryDy=0;exitX=1;exitY=0.5;exitDx=0;exitDy=0;" parent="1" source="RY9acW77J2VLaXt5oCim-3" target="RY9acW77J2VLaXt5oCim-5" edge="1">
          <mxGeometry x="-0.2385" width="80" relative="1" as="geometry">
            <mxPoint x="470" y="195" as="sourcePoint" />
            <mxPoint x="540" y="85" as="targetPoint" />
            <mxPoint as="offset" />
          </mxGeometry>
        </mxCell>
        <mxCell id="RY9acW77J2VLaXt5oCim-31" value="include" style="html=1;verticalAlign=bottom;endArrow=block;rounded=0;exitX=1;exitY=0.5;exitDx=0;exitDy=0;entryX=0;entryY=0.5;entryDx=0;entryDy=0;" parent="1" source="RY9acW77J2VLaXt5oCim-3" target="RY9acW77J2VLaXt5oCim-9" edge="1">
          <mxGeometry x="-0.2385" width="80" relative="1" as="geometry">
            <mxPoint x="470" y="195" as="sourcePoint" />
            <mxPoint x="520" y="290" as="targetPoint" />
            <mxPoint as="offset" />
          </mxGeometry>
        </mxCell>
        <mxCell id="RY9acW77J2VLaXt5oCim-61" value="Удаление файла" style="ellipse;whiteSpace=wrap;html=1;" parent="1" vertex="1">
          <mxGeometry x="737" y="330" width="140" height="70" as="geometry" />
        </mxCell>
        <mxCell id="RY9acW77J2VLaXt5oCim-62" value="Копирование файла" style="ellipse;whiteSpace=wrap;html=1;" parent="1" vertex="1">
          <mxGeometry x="920" y="380" width="140" height="70" as="geometry" />
        </mxCell>
        <mxCell id="RY9acW77J2VLaXt5oCim-63" value="include" style="html=1;verticalAlign=bottom;endArrow=block;rounded=0;entryX=0;entryY=0.5;entryDx=0;entryDy=0;exitX=1;exitY=0.5;exitDx=0;exitDy=0;" parent="1" source="RY9acW77J2VLaXt5oCim-16" target="RY9acW77J2VLaXt5oCim-61" edge="1">
          <mxGeometry x="-0.2385" width="80" relative="1" as="geometry">
            <mxPoint x="650" y="529.85" as="sourcePoint" />
            <mxPoint x="715" y="490.14" as="targetPoint" />
            <mxPoint as="offset" />
          </mxGeometry>
        </mxCell>
        <mxCell id="RY9acW77J2VLaXt5oCim-64" value="include" style="html=1;verticalAlign=bottom;endArrow=block;rounded=0;entryX=0;entryY=0.5;entryDx=0;entryDy=0;exitX=1;exitY=0.5;exitDx=0;exitDy=0;" parent="1" source="RY9acW77J2VLaXt5oCim-16" target="RY9acW77J2VLaXt5oCim-62" edge="1">
          <mxGeometry x="-0.2385" width="80" relative="1" as="geometry">
            <mxPoint x="650" y="529.85" as="sourcePoint" />
            <mxPoint x="715" y="490.14" as="targetPoint" />
            <mxPoint as="offset" />
          </mxGeometry>
        </mxCell>
        <mxCell id="RY9acW77J2VLaXt5oCim-66" value="Просмотр свойств файла" style="ellipse;whiteSpace=wrap;html=1;" parent="1" vertex="1">
          <mxGeometry x="950" y="460" width="140" height="70" as="geometry" />
        </mxCell>
        <mxCell id="RY9acW77J2VLaXt5oCim-67" value="include" style="html=1;verticalAlign=bottom;endArrow=block;rounded=0;exitX=1;exitY=0.5;exitDx=0;exitDy=0;" parent="1" source="RY9acW77J2VLaXt5oCim-16" edge="1">
          <mxGeometry x="-0.2385" width="80" relative="1" as="geometry">
            <mxPoint x="660" y="539.8499999999999" as="sourcePoint" />
            <mxPoint x="950" y="495" as="targetPoint" />
            <mxPoint as="offset" />
          </mxGeometry>
        </mxCell>
        <mxCell id="RY9acW77J2VLaXt5oCim-77" value="Изменение файла" style="ellipse;whiteSpace=wrap;html=1;" parent="1" vertex="1">
          <mxGeometry x="770" y="510" width="140" height="70" as="geometry" />
        </mxCell>
        <mxCell id="RY9acW77J2VLaXt5oCim-78" value="include" style="html=1;verticalAlign=bottom;endArrow=block;rounded=0;entryX=0;entryY=0;entryDx=0;entryDy=0;exitX=1;exitY=0.5;exitDx=0;exitDy=0;" parent="1" source="RY9acW77J2VLaXt5oCim-16" target="RY9acW77J2VLaXt5oCim-77" edge="1">
          <mxGeometry x="-0.2385" width="80" relative="1" as="geometry">
            <mxPoint x="680" y="425" as="sourcePoint" />
            <mxPoint x="767.5025253169417" y="399.74873734152936" as="targetPoint" />
            <mxPoint as="offset" />
          </mxGeometry>
        </mxCell>
      </root>
    </mxGraphModel>
  </diagram>
  <diagram id="5kFxV_3jfeW-Mqr_Y3LS" name="Диаграмма взаимодействия">
    <mxGraphModel dx="1182" dy="759" grid="1" gridSize="12" guides="1" tooltips="1" connect="1" arrows="1" fold="1" page="1" pageScale="1" pageWidth="827" pageHeight="1169" math="0" shadow="0">
      <root>
        <mxCell id="iGl88N5BOAMgyQuTsTP5-0" />
        <mxCell id="iGl88N5BOAMgyQuTsTP5-1" parent="iGl88N5BOAMgyQuTsTP5-0" />
        <mxCell id="iGl88N5BOAMgyQuTsTP5-2" value="Пользователь" style="shape=umlActor;verticalLabelPosition=bottom;verticalAlign=top;html=1;outlineConnect=0;" parent="iGl88N5BOAMgyQuTsTP5-1" vertex="1">
          <mxGeometry x="150" y="50" width="30" height="60" as="geometry" />
        </mxCell>
        <mxCell id="iGl88N5BOAMgyQuTsTP5-3" value="Программа" style="html=1;" parent="iGl88N5BOAMgyQuTsTP5-1" vertex="1">
          <mxGeometry x="250" y="70" width="110" height="50" as="geometry" />
        </mxCell>
        <mxCell id="iGl88N5BOAMgyQuTsTP5-4" value="Список файлов" style="html=1;" parent="iGl88N5BOAMgyQuTsTP5-1" vertex="1">
          <mxGeometry x="427" y="70" width="110" height="50" as="geometry" />
        </mxCell>
        <mxCell id="iGl88N5BOAMgyQuTsTP5-5" value="Файл" style="html=1;" parent="iGl88N5BOAMgyQuTsTP5-1" vertex="1">
          <mxGeometry x="608" y="70" width="110" height="50" as="geometry" />
        </mxCell>
        <mxCell id="iGl88N5BOAMgyQuTsTP5-6" value="Приложениие" style="html=1;" parent="iGl88N5BOAMgyQuTsTP5-1" vertex="1">
          <mxGeometry x="790" y="70" width="110" height="50" as="geometry" />
        </mxCell>
        <mxCell id="iGl88N5BOAMgyQuTsTP5-7" value="" style="endArrow=none;dashed=1;html=1;dashPattern=1 3;strokeWidth=2;rounded=0;" parent="iGl88N5BOAMgyQuTsTP5-1" edge="1">
          <mxGeometry width="50" height="50" relative="1" as="geometry">
            <mxPoint x="164.5" y="662" as="sourcePoint" />
            <mxPoint x="164.5" y="132" as="targetPoint" />
          </mxGeometry>
        </mxCell>
        <mxCell id="iGl88N5BOAMgyQuTsTP5-8" value="" style="endArrow=none;dashed=1;html=1;dashPattern=1 3;strokeWidth=2;rounded=0;" parent="iGl88N5BOAMgyQuTsTP5-1" edge="1">
          <mxGeometry width="50" height="50" relative="1" as="geometry">
            <mxPoint x="304.5" y="660" as="sourcePoint" />
            <mxPoint x="304.5" y="120" as="targetPoint" />
          </mxGeometry>
        </mxCell>
        <mxCell id="iGl88N5BOAMgyQuTsTP5-9" value="" style="endArrow=none;dashed=1;html=1;dashPattern=1 3;strokeWidth=2;rounded=0;" parent="iGl88N5BOAMgyQuTsTP5-1" edge="1">
          <mxGeometry width="50" height="50" relative="1" as="geometry">
            <mxPoint x="481.66" y="660" as="sourcePoint" />
            <mxPoint x="481.66" y="120" as="targetPoint" />
          </mxGeometry>
        </mxCell>
        <mxCell id="iGl88N5BOAMgyQuTsTP5-10" value="" style="endArrow=none;dashed=1;html=1;dashPattern=1 3;strokeWidth=2;rounded=0;" parent="iGl88N5BOAMgyQuTsTP5-1" edge="1">
          <mxGeometry width="50" height="50" relative="1" as="geometry">
            <mxPoint x="662.71" y="660" as="sourcePoint" />
            <mxPoint x="662.71" y="120" as="targetPoint" />
          </mxGeometry>
        </mxCell>
        <mxCell id="iGl88N5BOAMgyQuTsTP5-11" value="" style="endArrow=none;dashed=1;html=1;dashPattern=1 3;strokeWidth=2;rounded=0;" parent="iGl88N5BOAMgyQuTsTP5-1" edge="1">
          <mxGeometry width="50" height="50" relative="1" as="geometry">
            <mxPoint x="844.5" y="660" as="sourcePoint" />
            <mxPoint x="844.5" y="120" as="targetPoint" />
          </mxGeometry>
        </mxCell>
        <mxCell id="iGl88N5BOAMgyQuTsTP5-14" value="" style="html=1;points=[];perimeter=orthogonalPerimeter;" parent="iGl88N5BOAMgyQuTsTP5-1" vertex="1">
          <mxGeometry x="300" y="150" width="10" height="390" as="geometry" />
        </mxCell>
        <mxCell id="iGl88N5BOAMgyQuTsTP5-15" value="Запуск приложения" style="html=1;verticalAlign=bottom;startArrow=oval;endArrow=block;startSize=8;rounded=0;" parent="iGl88N5BOAMgyQuTsTP5-1" target="iGl88N5BOAMgyQuTsTP5-14" edge="1">
          <mxGeometry relative="1" as="geometry">
            <mxPoint x="165" y="150" as="sourcePoint" />
          </mxGeometry>
        </mxCell>
        <mxCell id="iGl88N5BOAMgyQuTsTP5-16" value="" style="html=1;points=[];perimeter=orthogonalPerimeter;" parent="iGl88N5BOAMgyQuTsTP5-1" vertex="1">
          <mxGeometry x="477" y="165" width="10" height="375" as="geometry" />
        </mxCell>
        <mxCell id="iGl88N5BOAMgyQuTsTP5-17" value="Запрос на открытие списка" style="html=1;verticalAlign=bottom;endArrow=block;entryX=0;entryY=0;rounded=0;" parent="iGl88N5BOAMgyQuTsTP5-1" source="iGl88N5BOAMgyQuTsTP5-14" target="iGl88N5BOAMgyQuTsTP5-16" edge="1">
          <mxGeometry relative="1" as="geometry">
            <mxPoint x="312" y="165" as="sourcePoint" />
          </mxGeometry>
        </mxCell>
        <mxCell id="iGl88N5BOAMgyQuTsTP5-18" value="return" style="html=1;verticalAlign=bottom;endArrow=open;dashed=1;endSize=8;exitX=0;exitY=0.95;rounded=0;" parent="iGl88N5BOAMgyQuTsTP5-1" edge="1">
          <mxGeometry relative="1" as="geometry">
            <mxPoint x="310" y="538.8399999999996" as="targetPoint" />
            <mxPoint x="477" y="538.8399999999996" as="sourcePoint" />
          </mxGeometry>
        </mxCell>
        <mxCell id="iGl88N5BOAMgyQuTsTP5-19" value="return" style="html=1;verticalAlign=bottom;endArrow=open;dashed=1;endSize=8;exitX=0;exitY=0.95;rounded=0;" parent="iGl88N5BOAMgyQuTsTP5-1" edge="1">
          <mxGeometry relative="1" as="geometry">
            <mxPoint x="168" y="539.1700000000001" as="targetPoint" />
            <mxPoint x="300" y="539.1700000000001" as="sourcePoint" />
          </mxGeometry>
        </mxCell>
        <mxCell id="iGl88N5BOAMgyQuTsTP5-20" value="" style="html=1;points=[];perimeter=orthogonalPerimeter;" parent="iGl88N5BOAMgyQuTsTP5-1" vertex="1">
          <mxGeometry x="658" y="192" width="10" height="36" as="geometry" />
        </mxCell>
        <mxCell id="iGl88N5BOAMgyQuTsTP5-21" value="Копирование файла" style="html=1;verticalAlign=bottom;endArrow=block;entryX=0;entryY=0;rounded=0;" parent="iGl88N5BOAMgyQuTsTP5-1" source="iGl88N5BOAMgyQuTsTP5-16" target="iGl88N5BOAMgyQuTsTP5-20" edge="1">
          <mxGeometry relative="1" as="geometry">
            <mxPoint x="492" y="192" as="sourcePoint" />
          </mxGeometry>
        </mxCell>
        <mxCell id="iGl88N5BOAMgyQuTsTP5-22" value="return" style="html=1;verticalAlign=bottom;endArrow=open;dashed=1;endSize=8;exitX=0;exitY=0.95;rounded=0;entryX=1;entryY=0.162;entryDx=0;entryDy=0;entryPerimeter=0;" parent="iGl88N5BOAMgyQuTsTP5-1" source="iGl88N5BOAMgyQuTsTP5-20" target="iGl88N5BOAMgyQuTsTP5-16" edge="1">
          <mxGeometry relative="1" as="geometry">
            <mxPoint x="492" y="226" as="targetPoint" />
          </mxGeometry>
        </mxCell>
        <mxCell id="iGl88N5BOAMgyQuTsTP5-23" value="" style="html=1;points=[];perimeter=orthogonalPerimeter;" parent="iGl88N5BOAMgyQuTsTP5-1" vertex="1">
          <mxGeometry x="658.29" y="264" width="10" height="36" as="geometry" />
        </mxCell>
        <mxCell id="iGl88N5BOAMgyQuTsTP5-24" value="Удаление файла" style="html=1;verticalAlign=bottom;endArrow=block;entryX=0;entryY=0;rounded=0;" parent="iGl88N5BOAMgyQuTsTP5-1" target="iGl88N5BOAMgyQuTsTP5-23" edge="1">
          <mxGeometry relative="1" as="geometry">
            <mxPoint x="487.29" y="264" as="sourcePoint" />
          </mxGeometry>
        </mxCell>
        <mxCell id="iGl88N5BOAMgyQuTsTP5-25" value="return" style="html=1;verticalAlign=bottom;endArrow=open;dashed=1;endSize=8;exitX=0;exitY=0.95;rounded=0;entryX=0.971;entryY=0.239;entryDx=0;entryDy=0;entryPerimeter=0;" parent="iGl88N5BOAMgyQuTsTP5-1" source="iGl88N5BOAMgyQuTsTP5-23" edge="1">
          <mxGeometry relative="1" as="geometry">
            <mxPoint x="487.00000000000006" y="297.94499999999994" as="targetPoint" />
          </mxGeometry>
        </mxCell>
        <mxCell id="MSgWgLS_ZgGa3XcwyfDF-0" value="" style="html=1;points=[];perimeter=orthogonalPerimeter;" parent="iGl88N5BOAMgyQuTsTP5-1" vertex="1">
          <mxGeometry x="658.29" y="336" width="10" height="36" as="geometry" />
        </mxCell>
        <mxCell id="MSgWgLS_ZgGa3XcwyfDF-1" value="Изменение файла" style="html=1;verticalAlign=bottom;endArrow=block;entryX=0;entryY=0;rounded=0;" parent="iGl88N5BOAMgyQuTsTP5-1" target="MSgWgLS_ZgGa3XcwyfDF-0" edge="1">
          <mxGeometry relative="1" as="geometry">
            <mxPoint x="487.29" y="336" as="sourcePoint" />
          </mxGeometry>
        </mxCell>
        <mxCell id="MSgWgLS_ZgGa3XcwyfDF-2" value="return" style="html=1;verticalAlign=bottom;endArrow=open;dashed=1;endSize=8;exitX=0;exitY=0.95;rounded=0;entryX=0.971;entryY=0.239;entryDx=0;entryDy=0;entryPerimeter=0;" parent="iGl88N5BOAMgyQuTsTP5-1" source="MSgWgLS_ZgGa3XcwyfDF-0" edge="1">
          <mxGeometry relative="1" as="geometry">
            <mxPoint x="487.00000000000006" y="369.94499999999994" as="targetPoint" />
          </mxGeometry>
        </mxCell>
        <mxCell id="_lkg1W_XIVx7riPbpxwD-0" value="" style="html=1;points=[];perimeter=orthogonalPerimeter;" parent="iGl88N5BOAMgyQuTsTP5-1" vertex="1">
          <mxGeometry x="658" y="408" width="10" height="36" as="geometry" />
        </mxCell>
        <mxCell id="_lkg1W_XIVx7riPbpxwD-1" value="Просмотр свойств файла" style="html=1;verticalAlign=bottom;endArrow=block;entryX=0;entryY=0;rounded=0;" parent="iGl88N5BOAMgyQuTsTP5-1" target="_lkg1W_XIVx7riPbpxwD-0" edge="1">
          <mxGeometry relative="1" as="geometry">
            <mxPoint x="486.99999999999994" y="408" as="sourcePoint" />
          </mxGeometry>
        </mxCell>
        <mxCell id="_lkg1W_XIVx7riPbpxwD-2" value="return" style="html=1;verticalAlign=bottom;endArrow=open;dashed=1;endSize=8;exitX=0;exitY=0.95;rounded=0;entryX=0.971;entryY=0.239;entryDx=0;entryDy=0;entryPerimeter=0;" parent="iGl88N5BOAMgyQuTsTP5-1" source="_lkg1W_XIVx7riPbpxwD-0" edge="1">
          <mxGeometry relative="1" as="geometry">
            <mxPoint x="486.71" y="441.94499999999994" as="targetPoint" />
          </mxGeometry>
        </mxCell>
        <mxCell id="_lkg1W_XIVx7riPbpxwD-3" value="" style="html=1;points=[];perimeter=orthogonalPerimeter;" parent="iGl88N5BOAMgyQuTsTP5-1" vertex="1">
          <mxGeometry x="658" y="480" width="10" height="60" as="geometry" />
        </mxCell>
        <mxCell id="_lkg1W_XIVx7riPbpxwD-4" value="Запуск файла" style="html=1;verticalAlign=bottom;endArrow=block;entryX=0;entryY=0;rounded=0;" parent="iGl88N5BOAMgyQuTsTP5-1" target="_lkg1W_XIVx7riPbpxwD-3" edge="1">
          <mxGeometry relative="1" as="geometry">
            <mxPoint x="487" y="480" as="sourcePoint" />
          </mxGeometry>
        </mxCell>
        <mxCell id="_lkg1W_XIVx7riPbpxwD-6" value="" style="html=1;points=[];perimeter=orthogonalPerimeter;" parent="iGl88N5BOAMgyQuTsTP5-1" vertex="1">
          <mxGeometry x="839.58" y="504" width="10" height="36" as="geometry" />
        </mxCell>
        <mxCell id="_lkg1W_XIVx7riPbpxwD-7" value="Работа с приложением" style="html=1;verticalAlign=bottom;endArrow=block;entryX=0;entryY=0;rounded=0;" parent="iGl88N5BOAMgyQuTsTP5-1" target="_lkg1W_XIVx7riPbpxwD-6" edge="1">
          <mxGeometry relative="1" as="geometry">
            <mxPoint x="668.58" y="504" as="sourcePoint" />
          </mxGeometry>
        </mxCell>
        <mxCell id="_lkg1W_XIVx7riPbpxwD-10" value="return" style="html=1;verticalAlign=bottom;endArrow=open;dashed=1;endSize=8;exitX=0;exitY=0.95;rounded=0;" parent="iGl88N5BOAMgyQuTsTP5-1" edge="1">
          <mxGeometry relative="1" as="geometry">
            <mxPoint x="668" y="539.1699999999996" as="targetPoint" />
            <mxPoint x="835" y="539.1699999999996" as="sourcePoint" />
          </mxGeometry>
        </mxCell>
      </root>
    </mxGraphModel>
  </diagram>
  <diagram id="GptMFEk5SXE6yGsb7KVU" name="Диаграмма классов">
    <mxGraphModel dx="1182" dy="759" grid="1" gridSize="12" guides="1" tooltips="1" connect="1" arrows="1" fold="1" page="1" pageScale="1" pageWidth="827" pageHeight="1169" math="0" shadow="0">
      <root>
        <mxCell id="CIJUzn7C3P_5S-OIJR_o-0" />
        <mxCell id="CIJUzn7C3P_5S-OIJR_o-1" parent="CIJUzn7C3P_5S-OIJR_o-0" />
        <mxCell id="CIJUzn7C3P_5S-OIJR_o-8" value="Superclass" style="swimlane;fontStyle=1;align=center;verticalAlign=top;childLayout=stackLayout;horizontal=1;startSize=26;horizontalStack=0;resizeParent=1;resizeParentMax=0;resizeLast=0;collapsible=1;marginBottom=0;" parent="CIJUzn7C3P_5S-OIJR_o-1" vertex="1">
          <mxGeometry x="360" y="180" width="160" height="86" as="geometry" />
        </mxCell>
        <mxCell id="CIJUzn7C3P_5S-OIJR_o-9" value="+ field: type" style="text;strokeColor=none;fillColor=none;align=left;verticalAlign=top;spacingLeft=4;spacingRight=4;overflow=hidden;rotatable=0;points=[[0,0.5],[1,0.5]];portConstraint=eastwest;" parent="CIJUzn7C3P_5S-OIJR_o-8" vertex="1">
          <mxGeometry y="26" width="160" height="26" as="geometry" />
        </mxCell>
        <mxCell id="CIJUzn7C3P_5S-OIJR_o-10" value="" style="line;strokeWidth=1;fillColor=none;align=left;verticalAlign=middle;spacingTop=-1;spacingLeft=3;spacingRight=3;rotatable=0;labelPosition=right;points=[];portConstraint=eastwest;" parent="CIJUzn7C3P_5S-OIJR_o-8" vertex="1">
          <mxGeometry y="52" width="160" height="8" as="geometry" />
        </mxCell>
        <mxCell id="CIJUzn7C3P_5S-OIJR_o-11" value="+ method(type): type" style="text;strokeColor=none;fillColor=none;align=left;verticalAlign=top;spacingLeft=4;spacingRight=4;overflow=hidden;rotatable=0;points=[[0,0.5],[1,0.5]];portConstraint=eastwest;" parent="CIJUzn7C3P_5S-OIJR_o-8" vertex="1">
          <mxGeometry y="60" width="160" height="26" as="geometry" />
        </mxCell>
        <mxCell id="CIJUzn7C3P_5S-OIJR_o-24" style="edgeStyle=orthogonalEdgeStyle;rounded=0;orthogonalLoop=1;jettySize=auto;html=1;entryX=1.006;entryY=0.116;entryDx=0;entryDy=0;entryPerimeter=0;" parent="CIJUzn7C3P_5S-OIJR_o-1" source="CIJUzn7C3P_5S-OIJR_o-12" target="CIJUzn7C3P_5S-OIJR_o-8" edge="1">
          <mxGeometry relative="1" as="geometry" />
        </mxCell>
        <mxCell id="CIJUzn7C3P_5S-OIJR_o-12" value="Listclass" style="swimlane;fontStyle=1;align=center;verticalAlign=top;childLayout=stackLayout;horizontal=1;startSize=26;horizontalStack=0;resizeParent=1;resizeParentMax=0;resizeLast=0;collapsible=1;marginBottom=0;" parent="CIJUzn7C3P_5S-OIJR_o-1" vertex="1">
          <mxGeometry x="360" y="348" width="160" height="86" as="geometry" />
        </mxCell>
        <mxCell id="CIJUzn7C3P_5S-OIJR_o-13" value="+ field: type" style="text;strokeColor=none;fillColor=none;align=left;verticalAlign=top;spacingLeft=4;spacingRight=4;overflow=hidden;rotatable=0;points=[[0,0.5],[1,0.5]];portConstraint=eastwest;" parent="CIJUzn7C3P_5S-OIJR_o-12" vertex="1">
          <mxGeometry y="26" width="160" height="26" as="geometry" />
        </mxCell>
        <mxCell id="CIJUzn7C3P_5S-OIJR_o-14" value="" style="line;strokeWidth=1;fillColor=none;align=left;verticalAlign=middle;spacingTop=-1;spacingLeft=3;spacingRight=3;rotatable=0;labelPosition=right;points=[];portConstraint=eastwest;" parent="CIJUzn7C3P_5S-OIJR_o-12" vertex="1">
          <mxGeometry y="52" width="160" height="8" as="geometry" />
        </mxCell>
        <mxCell id="CIJUzn7C3P_5S-OIJR_o-15" value="+ method(type): type" style="text;strokeColor=none;fillColor=none;align=left;verticalAlign=top;spacingLeft=4;spacingRight=4;overflow=hidden;rotatable=0;points=[[0,0.5],[1,0.5]];portConstraint=eastwest;" parent="CIJUzn7C3P_5S-OIJR_o-12" vertex="1">
          <mxGeometry y="60" width="160" height="26" as="geometry" />
        </mxCell>
        <mxCell id="CIJUzn7C3P_5S-OIJR_o-23" style="edgeStyle=orthogonalEdgeStyle;rounded=0;orthogonalLoop=1;jettySize=auto;html=1;entryX=0.994;entryY=0.116;entryDx=0;entryDy=0;entryPerimeter=0;" parent="CIJUzn7C3P_5S-OIJR_o-1" source="CIJUzn7C3P_5S-OIJR_o-16" target="CIJUzn7C3P_5S-OIJR_o-12" edge="1">
          <mxGeometry relative="1" as="geometry" />
        </mxCell>
        <mxCell id="CIJUzn7C3P_5S-OIJR_o-16" value="Actionclass" style="swimlane;fontStyle=1;align=center;verticalAlign=top;childLayout=stackLayout;horizontal=1;startSize=26;horizontalStack=0;resizeParent=1;resizeParentMax=0;resizeLast=0;collapsible=1;marginBottom=0;" parent="CIJUzn7C3P_5S-OIJR_o-1" vertex="1">
          <mxGeometry x="360" y="542" width="160" height="156" as="geometry" />
        </mxCell>
        <mxCell id="CIJUzn7C3P_5S-OIJR_o-17" value="+ field: type" style="text;strokeColor=none;fillColor=none;align=left;verticalAlign=top;spacingLeft=4;spacingRight=4;overflow=hidden;rotatable=0;points=[[0,0.5],[1,0.5]];portConstraint=eastwest;" parent="CIJUzn7C3P_5S-OIJR_o-16" vertex="1">
          <mxGeometry y="26" width="160" height="26" as="geometry" />
        </mxCell>
        <mxCell id="CIJUzn7C3P_5S-OIJR_o-18" value="" style="line;strokeWidth=1;fillColor=none;align=left;verticalAlign=middle;spacingTop=-1;spacingLeft=3;spacingRight=3;rotatable=0;labelPosition=right;points=[];portConstraint=eastwest;" parent="CIJUzn7C3P_5S-OIJR_o-16" vertex="1">
          <mxGeometry y="52" width="160" height="8" as="geometry" />
        </mxCell>
        <mxCell id="CIJUzn7C3P_5S-OIJR_o-19" value="+ method(del): type" style="text;strokeColor=none;fillColor=none;align=left;verticalAlign=top;spacingLeft=4;spacingRight=4;overflow=hidden;rotatable=0;points=[[0,0.5],[1,0.5]];portConstraint=eastwest;" parent="CIJUzn7C3P_5S-OIJR_o-16" vertex="1">
          <mxGeometry y="60" width="160" height="96" as="geometry" />
        </mxCell>
        <mxCell id="CIJUzn7C3P_5S-OIJR_o-20" value="+ method(copy): type" style="text;strokeColor=none;fillColor=none;align=left;verticalAlign=top;spacingLeft=4;spacingRight=4;overflow=hidden;rotatable=0;points=[[0,0.5],[1,0.5]];portConstraint=eastwest;" parent="CIJUzn7C3P_5S-OIJR_o-1" vertex="1">
          <mxGeometry x="360" y="628" width="160" height="26" as="geometry" />
        </mxCell>
        <mxCell id="CIJUzn7C3P_5S-OIJR_o-21" value="+ method(launch): type" style="text;strokeColor=none;fillColor=none;align=left;verticalAlign=top;spacingLeft=4;spacingRight=4;overflow=hidden;rotatable=0;points=[[0,0.5],[1,0.5]];portConstraint=eastwest;" parent="CIJUzn7C3P_5S-OIJR_o-1" vertex="1">
          <mxGeometry x="360" y="654" width="160" height="26" as="geometry" />
        </mxCell>
        <mxCell id="CIJUzn7C3P_5S-OIJR_o-25" value="+ method(change): type" style="text;strokeColor=none;fillColor=none;align=left;verticalAlign=top;spacingLeft=4;spacingRight=4;overflow=hidden;rotatable=0;points=[[0,0.5],[1,0.5]];portConstraint=eastwest;" parent="CIJUzn7C3P_5S-OIJR_o-1" vertex="1">
          <mxGeometry x="360" y="674" width="160" height="26" as="geometry" />
        </mxCell>
      </root>
    </mxGraphModel>
  </diagram>
</mxfile>
